<mxfile host="app.diagrams.net" modified="2024-04-22T12:47:38.364Z" agent="Mozilla/5.0 (Windows NT 10.0; Win64; x64) AppleWebKit/537.36 (KHTML, like Gecko) Chrome/124.0.0.0 Safari/537.36" etag="stO8aaAr5upakipaD2Th" version="24.2.7" type="github">
  <diagram name="第 1 页" id="3svByG2aPvppk6w5p1OH">
    <mxGraphModel dx="-1687" dy="420" grid="1" gridSize="10" guides="1" tooltips="1" connect="1" arrows="1" fold="1" page="1" pageScale="1" pageWidth="827" pageHeight="1169" math="0" shadow="0">
      <root>
        <mxCell id="0" />
        <mxCell id="1" parent="0" />
        <mxCell id="7o5RjZz1W28GRW-e-sWS-1" value="&lt;p style=&quot;margin-top: 0pt; margin-bottom: 0pt; margin-left: 0in; direction: ltr; unicode-bidi: embed; word-break: normal;&quot;&gt;&lt;b&gt;&lt;font style=&quot;font-size: 16px;&quot;&gt;问题定位&lt;/font&gt;&lt;/b&gt;&lt;/p&gt;" style="rounded=1;whiteSpace=wrap;html=1;fontFamily=Helvetica;fillColor=#bac8d3;strokeColor=#23445d;" vertex="1" parent="1">
          <mxGeometry x="2752" y="370" width="130" height="40" as="geometry" />
        </mxCell>
        <mxCell id="7o5RjZz1W28GRW-e-sWS-2" value="&lt;p style=&quot;margin-top: 0pt; margin-bottom: 0pt; margin-left: 0in; direction: ltr; unicode-bidi: embed; word-break: normal; font-size: 16px;&quot;&gt;&lt;font style=&quot;font-size: 16px;&quot;&gt;&lt;b style=&quot;&quot;&gt;数据收集&lt;/b&gt;&lt;/font&gt;&lt;/p&gt;&lt;p style=&quot;margin-top: 0pt; margin-bottom: 0pt; margin-left: 0in; direction: ltr; unicode-bidi: embed; word-break: normal; font-size: 16px;&quot;&gt;&lt;font style=&quot;font-size: 16px;&quot;&gt;&lt;b style=&quot;&quot;&gt;和特征工程&lt;/b&gt;&lt;/font&gt;&lt;/p&gt;" style="rounded=1;whiteSpace=wrap;html=1;fontFamily=Helvetica;fillColor=#bac8d3;strokeColor=#23445d;" vertex="1" parent="1">
          <mxGeometry x="2892" y="450" width="110" height="50" as="geometry" />
        </mxCell>
        <mxCell id="7o5RjZz1W28GRW-e-sWS-3" value="&lt;p style=&quot;margin-top: 0pt; margin-bottom: 0pt; margin-left: 0in; direction: ltr; unicode-bidi: embed; word-break: normal;&quot;&gt;&lt;font size=&quot;1&quot;&gt;&lt;b style=&quot;font-size: 16px;&quot;&gt;模型选择&lt;/b&gt;&lt;/font&gt;&lt;/p&gt;" style="rounded=1;whiteSpace=wrap;html=1;fontFamily=Helvetica;fillColor=#bac8d3;strokeColor=#23445d;" vertex="1" parent="1">
          <mxGeometry x="3034" y="540" width="110" height="50" as="geometry" />
        </mxCell>
        <mxCell id="7o5RjZz1W28GRW-e-sWS-4" value="&lt;p style=&quot;margin-top: 0pt; margin-bottom: 0pt; margin-left: 0in; direction: ltr; unicode-bidi: embed; word-break: normal;&quot;&gt;&lt;font size=&quot;1&quot;&gt;&lt;b style=&quot;font-size: 16px;&quot;&gt;模型验证与&lt;/b&gt;&lt;/font&gt;&lt;/p&gt;&lt;p style=&quot;margin-top: 0pt; margin-bottom: 0pt; margin-left: 0in; direction: ltr; unicode-bidi: embed; word-break: normal;&quot;&gt;&lt;font size=&quot;1&quot;&gt;&lt;b style=&quot;font-size: 16px;&quot;&gt;评估&lt;/b&gt;&lt;/font&gt;&lt;/p&gt;" style="rounded=1;whiteSpace=wrap;html=1;align=center;fontFamily=Helvetica;fillColor=#bac8d3;strokeColor=#23445d;" vertex="1" parent="1">
          <mxGeometry x="2802" y="670" width="110" height="60" as="geometry" />
        </mxCell>
        <mxCell id="7o5RjZz1W28GRW-e-sWS-5" value="&lt;p style=&quot;margin-top: 0pt; margin-bottom: 0pt; margin-left: 0in; direction: ltr; unicode-bidi: embed; word-break: normal;&quot;&gt;&lt;b&gt;&lt;font style=&quot;font-size: 16px;&quot;&gt;模型应用&lt;/font&gt;&lt;/b&gt;&lt;/p&gt;" style="rounded=1;whiteSpace=wrap;html=1;align=center;fontFamily=Helvetica;fillColor=#bac8d3;strokeColor=#23445d;" vertex="1" parent="1">
          <mxGeometry x="2650" y="604" width="102" height="50" as="geometry" />
        </mxCell>
        <mxCell id="7o5RjZz1W28GRW-e-sWS-6" value="" style="endArrow=classic;html=1;exitX=0.5;exitY=1;exitDx=0;exitDy=0;strokeColor=default;curved=1;strokeWidth=2;" edge="1" parent="1">
          <mxGeometry width="50" height="50" relative="1" as="geometry">
            <mxPoint x="2812" y="420" as="sourcePoint" />
            <mxPoint x="2872" y="470" as="targetPoint" />
            <Array as="points">
              <mxPoint x="2824" y="470" />
            </Array>
          </mxGeometry>
        </mxCell>
        <mxCell id="7o5RjZz1W28GRW-e-sWS-7" value="" style="endArrow=classic;html=1;exitX=0.5;exitY=1;exitDx=0;exitDy=0;strokeColor=default;curved=1;strokeWidth=2;" edge="1" parent="1">
          <mxGeometry width="50" height="50" relative="1" as="geometry">
            <mxPoint x="3012" y="470" as="sourcePoint" />
            <mxPoint x="3082" y="530" as="targetPoint" />
            <Array as="points">
              <mxPoint x="3072" y="470" />
            </Array>
          </mxGeometry>
        </mxCell>
        <mxCell id="7o5RjZz1W28GRW-e-sWS-8" value="" style="endArrow=classic;html=1;exitX=0.5;exitY=1;exitDx=0;exitDy=0;curved=1;strokeWidth=2;" edge="1" parent="1">
          <mxGeometry width="50" height="50" relative="1" as="geometry">
            <mxPoint x="3089" y="600" as="sourcePoint" />
            <mxPoint x="2922" y="710" as="targetPoint" />
            <Array as="points">
              <mxPoint x="3089" y="710" />
            </Array>
          </mxGeometry>
        </mxCell>
        <mxCell id="7o5RjZz1W28GRW-e-sWS-9" value="&lt;font style=&quot;font-size: 14px;&quot;&gt;&lt;b&gt;&amp;nbsp; &amp;nbsp; &lt;span style=&quot;white-space: pre;&quot;&gt;&#x9;&lt;/span&gt;&lt;span style=&quot;white-space: pre;&quot;&gt;&#x9;&lt;/span&gt;总水位? 增水?&lt;br style=&quot;&quot;&gt;&amp;nbsp; &amp;nbsp; &amp;nbsp; &amp;nbsp; &amp;nbsp; &amp;nbsp;极值预测? 过程预测? &lt;br style=&quot;&quot;&gt;&amp;nbsp; &amp;nbsp; &amp;nbsp; &amp;nbsp; &amp;nbsp; &amp;nbsp; &amp;nbsp; &amp;nbsp; &amp;nbsp; &amp;nbsp; 时空预测?&lt;/b&gt;&lt;/font&gt;" style="text;html=1;strokeColor=none;fillColor=none;align=left;verticalAlign=middle;whiteSpace=wrap;rounded=0;fontFamily=Helvetica;fontStyle=2;fontColor=#666666;fontSize=12;" vertex="1" parent="1">
          <mxGeometry x="2640" y="430" width="230" height="40" as="geometry" />
        </mxCell>
        <mxCell id="7o5RjZz1W28GRW-e-sWS-10" value="" style="endArrow=classic;html=1;curved=1;dashed=1;dashPattern=8 8;strokeWidth=2;strokeColor=#666666;" edge="1" parent="1">
          <mxGeometry width="50" height="50" relative="1" as="geometry">
            <mxPoint x="2932" y="690" as="sourcePoint" />
            <mxPoint x="3072" y="600" as="targetPoint" />
            <Array as="points">
              <mxPoint x="3052" y="700" />
            </Array>
          </mxGeometry>
        </mxCell>
        <mxCell id="7o5RjZz1W28GRW-e-sWS-11" value="&lt;font style=&quot;font-size: 14px;&quot; face=&quot;Helvetica&quot;&gt;&lt;b&gt;更多的数据?&amp;nbsp;&lt;br&gt;更好的特征表示?&lt;/b&gt;&lt;br&gt;&lt;/font&gt;" style="text;html=1;strokeColor=none;fillColor=none;align=left;verticalAlign=middle;whiteSpace=wrap;rounded=0;fontFamily=Times New Roman;fontStyle=2;fontColor=#666666;" vertex="1" parent="1">
          <mxGeometry x="2777" y="510" width="173" height="50" as="geometry" />
        </mxCell>
        <mxCell id="7o5RjZz1W28GRW-e-sWS-12" value="&lt;div style=&quot;font-size: 14px;&quot;&gt;&lt;span style=&quot;font-family: Helvetica; background-color: initial;&quot;&gt;&lt;b style=&quot;&quot;&gt;&lt;font style=&quot;font-size: 14px;&quot;&gt;&amp;nbsp; &amp;nbsp; &amp;nbsp; &amp;nbsp; &amp;nbsp; &amp;nbsp; &amp;nbsp; &amp;nbsp; &amp;nbsp;重新选择模型&lt;/font&gt;&lt;/b&gt;&lt;/span&gt;&lt;/div&gt;&lt;font style=&quot;font-size: 14px;&quot; face=&quot;Helvetica&quot;&gt;&lt;b style=&quot;&quot;&gt;&lt;div style=&quot;&quot;&gt;&lt;span style=&quot;background-color: initial;&quot;&gt;&amp;nbsp; &amp;nbsp; &amp;nbsp; &amp;nbsp; &amp;nbsp; &amp;nbsp; &amp;nbsp; &amp;nbsp; &amp;nbsp; &amp;nbsp; &amp;nbsp;模型对比&lt;/span&gt;&lt;/div&gt;&lt;div style=&quot;&quot;&gt;&lt;span style=&quot;background-color: initial;&quot;&gt;&amp;nbsp; &amp;nbsp; &amp;nbsp; &amp;nbsp; &amp;nbsp; &amp;nbsp; &amp;nbsp; &amp;nbsp; &amp;nbsp; 模型改进&lt;/span&gt;&lt;/div&gt;&lt;/b&gt;&lt;/font&gt;" style="text;html=1;strokeColor=none;fillColor=none;align=left;verticalAlign=middle;whiteSpace=wrap;rounded=0;fontFamily=Times New Roman;fontStyle=2;fontColor=#666666;" vertex="1" parent="1">
          <mxGeometry x="2900" y="620" width="162" height="50" as="geometry" />
        </mxCell>
        <mxCell id="7o5RjZz1W28GRW-e-sWS-13" value="" style="endArrow=classic;html=1;curved=1;dashed=1;strokeWidth=2;strokeColor=#666666;" edge="1" parent="1">
          <mxGeometry width="50" height="50" relative="1" as="geometry">
            <mxPoint x="2802" y="660" as="sourcePoint" />
            <mxPoint x="2862" y="490" as="targetPoint" />
            <Array as="points">
              <mxPoint x="2712" y="490" />
            </Array>
          </mxGeometry>
        </mxCell>
        <mxCell id="7o5RjZz1W28GRW-e-sWS-14" value="" style="endArrow=classic;html=1;curved=1;strokeWidth=2;" edge="1" parent="1">
          <mxGeometry width="50" height="50" relative="1" as="geometry">
            <mxPoint x="2782" y="710" as="sourcePoint" />
            <mxPoint x="2702" y="660" as="targetPoint" />
            <Array as="points">
              <mxPoint x="2722" y="704" />
            </Array>
          </mxGeometry>
        </mxCell>
        <mxCell id="7o5RjZz1W28GRW-e-sWS-15" value="&lt;font style=&quot;font-size: 14px;&quot; face=&quot;Helvetica&quot;&gt;&lt;b&gt;&amp;nbsp; &amp;nbsp;传统的机器学习方法?&amp;nbsp;&lt;br&gt;深度学习模型?&lt;/b&gt;&lt;br&gt;&lt;/font&gt;" style="text;html=1;strokeColor=none;fillColor=none;align=left;verticalAlign=middle;whiteSpace=wrap;rounded=0;fontFamily=Times New Roman;fontStyle=2;fontColor=#666666;" vertex="1" parent="1">
          <mxGeometry x="3062" y="654" width="160" height="50" as="geometry" />
        </mxCell>
        <mxCell id="7o5RjZz1W28GRW-e-sWS-17" value="&lt;b style=&quot;font-size: 14px;&quot;&gt;&amp;nbsp; &amp;nbsp; 实测数据?数值模拟数据？&lt;br&gt;&lt;span style=&quot;white-space: pre;&quot;&gt;&#x9;&lt;/span&gt;时间特征?空间特征？&lt;/b&gt;" style="text;html=1;strokeColor=none;fillColor=none;align=left;verticalAlign=middle;whiteSpace=wrap;rounded=0;fontFamily=Helvetica;fontStyle=2;fontColor=#666666;" vertex="1" parent="1">
          <mxGeometry x="3040" y="460" width="230" height="40" as="geometry" />
        </mxCell>
      </root>
    </mxGraphModel>
  </diagram>
</mxfile>
